<svg xmlns="http://www.w3.org/2000/svg" version="1.1" xmlns:xlink="http://www.w3.org/1999/xlink" width="224.41164803121717" height="200" viewBox="0.09440000355243683 9.806922912597656 29.243099212646484 24.97420883178711"><path d="M8.95 9.92L8.95 9.92Q9.28 9.71 9.67 9.89Q10.06 10.08 10.17 10.54Q10.27 11.00 10.49 11.32Q10.70 11.64 9.84 13.45Q8.98 15.25 8.07 17.42Q7.15 19.59 6.61 20.97Q6.07 22.34 6.29 22.65Q6.50 22.95 7.81 21.97Q9.12 21.00 10.19 20.17Q11.25 19.34 13.11 17.69Q14.96 16.04 15.60 15.58Q16.23 15.12 16.59 15.04Q16.95 14.96 17.45 15.18Q17.95 15.39 18.15 15.74Q18.36 16.09 18.15 16.46Q17.95 16.82 17.56 17.28Q17.17 17.73 16.46 18.06Q15.74 18.38 14.89 19.16Q14.04 19.94 13.68 20.15Q13.32 20.35 12.43 21.18Q11.54 22.01 9.85 23.18Q8.16 24.36 10.07 25.52Q11.97 26.68 12.65 27.07Q13.32 27.46 13.79 27.57Q14.26 27.68 14.65 27.85Q15.04 28.03 15.24 28.27Q15.45 28.52 15.14 28.77Q14.82 29.02 14.39 29.05Q13.96 29.08 13.08 29.05Q12.19 29.02 11.51 28.74Q10.84 28.46 10.10 28.10Q9.36 27.73 8.75 27.25Q8.14 26.76 7.78 26.57Q7.42 26.39 6.46 25.68Q5.51 24.98 5.20 25.12Q4.88 25.25 4.43 26.90Q3.98 28.55 2.72 31.54Q1.46 34.53 0.93 34.72Q0.39 34.90 0.21 34.55Q0.04 34.20 0.12 33.35Q0.20 32.50 0.62 31.37Q1.04 30.23 1.40 29.02Q1.76 27.81 2.74 25.01Q3.73 22.21 3.95 21.88Q4.16 21.56 4.48 20.78Q4.80 20 5.30 18.30Q5.80 16.60 6.15 15.89Q6.50 15.18 6.96 14.04Q7.42 12.91 7.53 12.48Q7.64 12.05 7.82 11.48Q8.01 10.92 8.32 10.53Q8.63 10.14 8.95 9.92ZM26.02 11.89L26.02 11.89Q26.74 11.66 27.29 11.75Q27.83 11.84 28.28 12.00Q28.73 12.17 28.98 12.58Q29.24 12.99 29.32 13.50Q29.39 14.00 29.18 14.45Q28.96 14.90 28.67 15.23Q28.38 15.57 28.13 15.97Q27.89 16.37 27.43 16.51Q26.97 16.66 26.77 16.51Q26.56 16.37 27.00 15.28Q27.44 14.20 27.04 14.03Q26.64 13.87 26.10 14.01Q25.57 14.16 24.56 15.09Q23.55 16.02 22.89 17.24Q22.23 18.46 22.10 19.23Q21.97 20 22.04 20.75Q22.11 21.50 22.29 22.63Q22.48 23.75 22.69 24.64Q22.89 25.53 22.74 26.97Q22.60 28.42 22.03 29.36Q21.46 30.29 20.98 30.95Q20.49 31.60 19.85 32.01Q19.22 32.42 18.43 32.47Q17.64 32.52 17.20 32.35Q16.76 32.19 16.29 31.51Q15.82 30.84 15.78 30.28Q15.74 29.73 16.13 28.99Q16.52 28.26 17.36 27.38Q18.20 26.50 18.80 26.31Q19.39 26.11 19.85 25.63Q20.31 25.16 19.81 22.95Q19.32 20.74 19.57 19.16Q19.82 17.58 20.25 16.69Q20.68 15.80 21.62 14.78Q22.56 13.75 23.27 13.30Q23.98 12.85 24.64 12.48Q25.29 12.11 26.02 11.89ZM19.96 26.39L19.96 26.39Q19.67 25.90 18.45 27.42Q17.23 28.95 17.31 29.51Q17.40 30.08 17.69 30.16Q17.97 30.23 18.26 30.17Q18.55 30.10 18.79 29.85Q19.02 29.61 19.43 29.24Q19.84 28.87 20.08 28.30Q20.31 27.73 20.28 27.30Q20.25 26.88 19.96 26.39Z" fill="black"></path></svg>