<svg xmlns="http://www.w3.org/2000/svg"  viewBox="0 0 50 50" width="500px" height="500px"><path fill="#ff9600" d="M42.337,21.686c-1.729-1.909-3.484-3.795-5.225-5.693c-1.714-1.868-3.429-3.736-5.143-5.604 c-0.844-0.919-1.687-1.838-2.531-2.757c-0.75-0.817-1.496-1.913-2.521-2.398c-1.885-0.894-3.971,0.14-5.29,1.521 c-1.544,1.618-2.912,3.402-4.46,5.022c-1.617,1.692-3.308,3.314-5.065,4.861c-1.631,1.437-3.599,2.703-4.88,4.484 c-1.151,1.601-1.419,3.789-0.496,5.559c0.725,1.39,2.139,2.257,3.646,2.568c0.04,2.251,0.079,4.503,0.119,6.754 c0.037,2.111-0.237,4.567,0.649,6.546c0.807,1.804,2.648,2.718,4.483,3.148c2.165,0.507,4.462,0.565,6.675,0.628 c2.537,0.072,5.079,0.008,7.608-0.199c1.329-0.109,2.732-0.279,3.975-0.798c0.909-0.111,1.801-0.326,2.65-0.736 c1.803-0.87,2.893-2.453,3.128-4.429c0.127-1.066,0.057-2.149,0.029-3.219c-0.031-1.187-0.065-2.373-0.114-3.559 c-0.075-1.815-0.186-3.628-0.368-5.435c1.363-0.264,3.015-0.286,4.067-1.325C44.859,25.058,43.526,22.999,42.337,21.686z"/><path fill="#fff" d="M35.912,32.273c0.029-1.093,0.15-2.23,0.049-3.321c-0.08-0.863-0.411-1.718-1.282-2.045 c-0.538-0.202-1.152-0.179-1.719-0.198c-0.67-0.023-1.341-0.034-2.012-0.035c-0.729-0.001-1.837,0.038-2.729,0.075 c-0.855,0.036-1.573,0.653-1.736,1.493c-0.196,1.015-0.427,2.31-0.465,2.969c-0.055,0.953,0.01,2.058,0.333,2.982 c0.363,1.04,1.276,1.33,2.283,1.472c1.153,0.162,2.318,0.209,3.48,0.122c0.539-0.041,1.076-0.108,1.609-0.2 c0.486-0.084,1.04-0.149,1.469-0.415C36.111,34.603,35.888,33.186,35.912,32.273z"/><path fill="#231f20" d="M35,30.399c-1.048,0-2.095,0.042-3.139,0.107c0.068-0.833,0.155-1.664,0.212-2.498	c0.044-0.642-0.956-0.64-1,0c-0.059,0.857-0.148,1.712-0.218,2.568c-1.149,0.095-2.295,0.224-3.436,0.396	c-0.269,0.04-0.412,0.377-0.349,0.615c0.076,0.287,0.349,0.389,0.615,0.349c1.024-0.154,2.053-0.267,3.085-0.354	c-0.077,0.884-0.136,1.769-0.225,2.651c-0.027,0.269,0.249,0.5,0.5,0.5c0.293,0,0.473-0.23,0.5-0.5	c0.092-0.908,0.153-1.818,0.232-2.727c1.073-0.069,2.148-0.109,3.224-0.108C35.643,31.399,35.645,30.399,35,30.399z"/><path fill="#231f20" d="M36.834,24.568c-2.652-1.192-4.988-3.167-6.723-5.492c-1.869-2.505-3.18-5.392-4.489-8.213	c-0.154-0.332-0.706-0.322-0.863,0c-1.753,3.585-4.142,7.012-6.897,9.889c-1.209,1.262-2.524,2.42-3.987,3.381	c-0.536,0.352-0.035,1.218,0.505,0.863c4.559-2.993,7.979-7.686,10.594-12.403c0.065-0.117,0.124-0.238,0.188-0.356	c1.238,2.663,2.531,5.339,4.331,7.668c1.794,2.32,4.15,4.32,6.835,5.527C36.912,25.693,37.421,24.832,36.834,24.568z"/><path fill="#231f20" d="M15.979,41.997c-0.004-2.118-0.124-4.235-0.212-6.35c-0.044-1.047-0.085-2.095-0.103-3.143 c-0.018-1.038-0.205-2.354,0.522-3.197c0.809-0.939,2.164-1.044,3.318-0.989c0.54,0.026,1.157,0.068,1.606,0.405 c0.458,0.344,0.648,0.91,0.761,1.448c0.192,0.91,0.192,1.875,0.268,2.8c0.085,1.029,0.176,2.057,0.268,3.086 C22.613,38.371,22.832,40.684,23,43c0.046,0.638,1.047,0.643,1,0c-0.168-2.316-0.387-4.629-0.593-6.942 c-0.104-1.171-0.208-2.342-0.303-3.514c-0.084-1.041-0.071-2.151-0.404-3.15c-0.37-1.107-1.183-1.805-2.338-1.993 c-1.23-0.201-2.644-0.163-3.783,0.388c-1.016,0.492-1.713,1.386-1.864,2.509c-0.153,1.14-0.055,2.342-0.018,3.489 c0.087,2.737,0.277,5.472,0.283,8.211C14.981,42.641,15.981,42.642,15.979,41.997L15.979,41.997z"/><path fill="#399bdf" d="M17.512,5.209c0.07-0.536-0.51-1-1-1c-0.599,0-0.929,0.462-1,1c-0.078,0.596-0.519,1.239-1.148,1.325	c-0.024,0.003-0.053,0.001-0.08,0.001c-0.135-0.775-0.398-1.541-1.016-2.041c-0.438-0.355-1.291-0.447-1.571,0.202	c-0.511,1.188-0.151,2.451,0.727,3.193c0.008,0.408-0.033,0.819-0.181,1.191c-0.217,0.544-0.57,0.706-1.119,0.701	c-0.01-0.295-0.033-0.589-0.081-0.876c-0.185-1.103-1.492-1.621-2.345-0.83c-0.763,0.707-0.61,1.908-0.015,2.66	c0.095,0.12,0.214,0.21,0.326,0.31c-0.1,0.488-0.261,0.958-0.529,1.381c-0.168,0.266-0.592,0.889-0.95,0.905	c-0.427,0.018-0.725-0.764-0.876-1.057c-0.588-1.145-2.314-0.135-1.727,1.009c0.451,0.879,1.055,1.737,2.07,1.987	c1.009,0.248,1.939-0.318,2.602-1.038c0.63-0.685,1.062-1.538,1.304-2.447c1.123,0.054,2.288-0.403,2.885-1.35	c0.362-0.572,0.535-1.24,0.596-1.918C16.15,8.421,17.292,6.888,17.512,5.209z"/><path fill="#ff9600" d="M47.01,12.743c0.727-0.77-0.1-1.845-0.91-1.686c-0.167-0.005-0.341,0.022-0.522,0.13	c-0.5,0.297-1.039,0.219-1.455-0.238c-0.533-0.585-0.899-1.334-1.615-1.809c-0.706-0.468-1.756,0.314-1.469,1.129	c0.258,0.734,0.397,1.595-0.046,2.248c-0.136,0.201-0.352,0.399-0.58,0.489c-0.292,0.116-0.733,0.033-1.115,0.185	c-0.416,0.165-0.734,0.489-0.734,0.964c0,0.432,0.31,0.857,0.734,0.964c0.94,0.238,1.976,0.464,2.751,1.083	c0.603,0.481,0.938,1.181,1.2,1.897c0.063,0.242,0.149,0.484,0.25,0.726c0.002,0.006,0.004,0.013,0.007,0.019c0,0,0.001,0,0.001,0	c0.034,0.08,0.062,0.16,0.1,0.239c0.485,1.019,2.185,0.302,1.828-0.771c-0.107-0.323-0.219-0.65-0.343-0.974	C44.76,15.653,45.895,13.925,47.01,12.743z M44.137,13.247c-0.289,0.487-0.531,0.994-0.711,1.517	c-0.349-0.289-0.73-0.513-1.125-0.71c0.153-0.165,0.297-0.339,0.418-0.527c0.17-0.263,0.294-0.546,0.384-0.839	c0.091,0.074,0.166,0.161,0.268,0.225C43.611,13.064,43.869,13.174,44.137,13.247z"/><path fill="#399bdf" d="M33.895,8.162c0.662,0.37,1.296,0.787,1.897,1.249c-0.067-0.052-0.135-0.104-0.202-0.156 c0.424,0.328,0.831,0.678,1.219,1.048c0.379,0.361,1.043,0.405,1.414,0c0.359-0.391,0.405-1.029,0-1.414 c-0.997-0.95-2.116-1.782-3.318-2.453c-0.457-0.255-1.113-0.125-1.368,0.359C33.287,7.266,33.407,7.89,33.895,8.162L33.895,8.162z"/><path fill="#399bdf" d="M37.318,3.563c0.666,1.271,1.331,2.542,1.997,3.813c0.243,0.464,0.929,0.642,1.368,0.359 c0.473-0.305,0.619-0.872,0.359-1.368c-0.666-1.271-1.331-2.542-1.997-3.813c-0.243-0.464-0.929-0.642-1.368-0.359 C37.204,2.5,37.058,3.067,37.318,3.563L37.318,3.563z"/><path fill="#231f20" d="M20.047,36.368c0.643,0,0.645-1,0-1C19.404,35.368,19.403,36.368,20.047,36.368L20.047,36.368z"/></svg>